<mxfile host="65bd71144e">
    <diagram id="gMc-prGHNhcC49PEfDZj" name="Page-1">
        <mxGraphModel dx="1438" dy="1382" grid="1" gridSize="10" guides="1" tooltips="1" connect="1" arrows="1" fold="1" page="1" pageScale="1" pageWidth="827" pageHeight="1169" math="0" shadow="0">
            <root>
                <mxCell id="0"/>
                <mxCell id="1" parent="0"/>
                <mxCell id="2" value="" style="rounded=0;whiteSpace=wrap;html=1;" vertex="1" parent="1">
                    <mxGeometry x="160" y="10" width="110" height="40" as="geometry"/>
                </mxCell>
                <mxCell id="3" value="" style="rounded=0;whiteSpace=wrap;html=1;" vertex="1" parent="1">
                    <mxGeometry x="160" y="90" width="110" height="40" as="geometry"/>
                </mxCell>
                <mxCell id="4" value="" style="rounded=0;whiteSpace=wrap;html=1;" vertex="1" parent="1">
                    <mxGeometry x="160" y="170" width="110" height="40" as="geometry"/>
                </mxCell>
                <mxCell id="5" value="" style="rounded=0;whiteSpace=wrap;html=1;" vertex="1" parent="1">
                    <mxGeometry x="160" y="250" width="110" height="40" as="geometry"/>
                </mxCell>
                <mxCell id="6" value="" style="rounded=0;whiteSpace=wrap;html=1;" vertex="1" parent="1">
                    <mxGeometry x="160" y="330" width="110" height="40" as="geometry"/>
                </mxCell>
                <mxCell id="47" style="edgeStyle=orthogonalEdgeStyle;html=1;entryX=0.5;entryY=0;entryDx=0;entryDy=0;" edge="1" parent="1" source="7" target="45">
                    <mxGeometry relative="1" as="geometry"/>
                </mxCell>
                <mxCell id="48" value="при натисканні" style="edgeLabel;html=1;align=center;verticalAlign=middle;resizable=0;points=[];" vertex="1" connectable="0" parent="47">
                    <mxGeometry x="0.2118" relative="1" as="geometry">
                        <mxPoint as="offset"/>
                    </mxGeometry>
                </mxCell>
                <mxCell id="7" value="Reset" style="rounded=1;whiteSpace=wrap;html=1;fillColor=#f5f5f5;fontColor=#333333;strokeColor=#666666;" vertex="1" parent="1">
                    <mxGeometry x="280" y="1030" width="120" height="60" as="geometry"/>
                </mxCell>
                <mxCell id="9" value="" style="rounded=0;whiteSpace=wrap;html=1;fillColor=none;" vertex="1" parent="1">
                    <mxGeometry x="60" y="670" width="280" height="280" as="geometry"/>
                </mxCell>
                <mxCell id="10" value="" style="rounded=0;whiteSpace=wrap;html=1;fillColor=none;" vertex="1" parent="1">
                    <mxGeometry x="370" y="670" width="280" height="280" as="geometry"/>
                </mxCell>
                <mxCell id="11" value="Заклад освіти" style="rounded=0;whiteSpace=wrap;html=1;fillColor=default;" vertex="1" parent="1">
                    <mxGeometry x="80" y="695" width="120" height="45" as="geometry"/>
                </mxCell>
                <mxCell id="12" value="Група" style="rounded=0;whiteSpace=wrap;html=1;fillColor=default;" vertex="1" parent="1">
                    <mxGeometry x="80" y="770" width="120" height="45" as="geometry"/>
                </mxCell>
                <mxCell id="14" value="Курс" style="rounded=0;whiteSpace=wrap;html=1;fillColor=default;" vertex="1" parent="1">
                    <mxGeometry x="80" y="850" width="120" height="45" as="geometry"/>
                </mxCell>
                <mxCell id="16" value="Орг." style="rounded=0;whiteSpace=wrap;html=1;fillColor=default;" vertex="1" parent="1">
                    <mxGeometry x="400" y="695" width="120" height="45" as="geometry"/>
                </mxCell>
                <mxCell id="17" value="Посада" style="rounded=0;whiteSpace=wrap;html=1;fillColor=default;" vertex="1" parent="1">
                    <mxGeometry x="400" y="770" width="120" height="45" as="geometry"/>
                </mxCell>
                <mxCell id="22" style="edgeStyle=orthogonalEdgeStyle;html=1;entryX=0.5;entryY=0;entryDx=0;entryDy=0;" edge="1" parent="1" source="18" target="19">
                    <mxGeometry relative="1" as="geometry">
                        <Array as="points">
                            <mxPoint x="390" y="410"/>
                            <mxPoint x="390" y="60"/>
                            <mxPoint x="605" y="60"/>
                        </Array>
                    </mxGeometry>
                </mxCell>
                <mxCell id="23" value="при зміні" style="edgeLabel;html=1;align=center;verticalAlign=middle;resizable=0;points=[];" vertex="1" connectable="0" parent="22">
                    <mxGeometry x="0.499" relative="1" as="geometry">
                        <mxPoint as="offset"/>
                    </mxGeometry>
                </mxCell>
                <mxCell id="18" value="Вид діятьності" style="rounded=0;whiteSpace=wrap;html=1;fillColor=default;" vertex="1" parent="1">
                    <mxGeometry x="160" y="390" width="110" height="40" as="geometry"/>
                </mxCell>
                <mxCell id="24" style="edgeStyle=orthogonalEdgeStyle;html=1;entryX=0.5;entryY=0;entryDx=0;entryDy=0;" edge="1" parent="1" source="19" target="9">
                    <mxGeometry relative="1" as="geometry">
                        <Array as="points">
                            <mxPoint x="420" y="130"/>
                            <mxPoint x="420" y="500"/>
                        </Array>
                    </mxGeometry>
                </mxCell>
                <mxCell id="25" style="edgeStyle=orthogonalEdgeStyle;html=1;entryX=0.25;entryY=0;entryDx=0;entryDy=0;" edge="1" parent="1" source="19" target="10">
                    <mxGeometry relative="1" as="geometry">
                        <Array as="points">
                            <mxPoint x="440" y="130"/>
                        </Array>
                    </mxGeometry>
                </mxCell>
                <mxCell id="26" value="Сховати" style="edgeLabel;html=1;align=center;verticalAlign=middle;resizable=0;points=[];" vertex="1" connectable="0" parent="25">
                    <mxGeometry x="-0.7615" y="-3" relative="1" as="geometry">
                        <mxPoint as="offset"/>
                    </mxGeometry>
                </mxCell>
                <mxCell id="27" style="edgeStyle=orthogonalEdgeStyle;html=1;entryX=0.5;entryY=0;entryDx=0;entryDy=0;exitX=1;exitY=0.5;exitDx=0;exitDy=0;" edge="1" parent="1" source="19" target="20">
                    <mxGeometry relative="1" as="geometry"/>
                </mxCell>
                <mxCell id="19" value="Вид діятьності == '---'" style="rhombus;whiteSpace=wrap;html=1;fillColor=default;" vertex="1" parent="1">
                    <mxGeometry x="510" y="80" width="190" height="100" as="geometry"/>
                </mxCell>
                <mxCell id="28" style="edgeStyle=orthogonalEdgeStyle;html=1;entryX=0.5;entryY=0;entryDx=0;entryDy=0;" edge="1" parent="1" source="20" target="9">
                    <mxGeometry relative="1" as="geometry">
                        <Array as="points">
                            <mxPoint x="460" y="280"/>
                            <mxPoint x="460" y="500"/>
                        </Array>
                    </mxGeometry>
                </mxCell>
                <mxCell id="29" value="Показати" style="edgeLabel;html=1;align=center;verticalAlign=middle;resizable=0;points=[];" vertex="1" connectable="0" parent="28">
                    <mxGeometry x="-0.5536" relative="1" as="geometry">
                        <mxPoint x="10" y="1" as="offset"/>
                    </mxGeometry>
                </mxCell>
                <mxCell id="30" style="edgeStyle=orthogonalEdgeStyle;html=1;entryX=0.5;entryY=0;entryDx=0;entryDy=0;exitX=1;exitY=0.5;exitDx=0;exitDy=0;" edge="1" parent="1" source="20" target="21">
                    <mxGeometry relative="1" as="geometry"/>
                </mxCell>
                <mxCell id="20" value="Вид діятьності == 'студент'" style="rhombus;whiteSpace=wrap;html=1;fillColor=default;" vertex="1" parent="1">
                    <mxGeometry x="510" y="230" width="190" height="100" as="geometry"/>
                </mxCell>
                <mxCell id="31" style="edgeStyle=orthogonalEdgeStyle;html=1;entryX=0.542;entryY=0.004;entryDx=0;entryDy=0;entryPerimeter=0;exitX=0;exitY=0.5;exitDx=0;exitDy=0;" edge="1" parent="1" source="21" target="10">
                    <mxGeometry relative="1" as="geometry"/>
                </mxCell>
                <mxCell id="32" value="показати" style="edgeLabel;html=1;align=center;verticalAlign=middle;resizable=0;points=[];" vertex="1" connectable="0" parent="31">
                    <mxGeometry x="-0.3736" y="4" relative="1" as="geometry">
                        <mxPoint as="offset"/>
                    </mxGeometry>
                </mxCell>
                <mxCell id="33" style="edgeStyle=orthogonalEdgeStyle;html=1;entryX=0.606;entryY=0.004;entryDx=0;entryDy=0;entryPerimeter=0;" edge="1" parent="1" source="21" target="9">
                    <mxGeometry relative="1" as="geometry"/>
                </mxCell>
                <mxCell id="34" value="сховати" style="edgeLabel;html=1;align=center;verticalAlign=middle;resizable=0;points=[];" vertex="1" connectable="0" parent="33">
                    <mxGeometry x="-0.8014" y="-1" relative="1" as="geometry">
                        <mxPoint as="offset"/>
                    </mxGeometry>
                </mxCell>
                <mxCell id="21" value="Вид діятьності == 'працівник'" style="rhombus;whiteSpace=wrap;html=1;fillColor=default;" vertex="1" parent="1">
                    <mxGeometry x="540" y="410" width="190" height="100" as="geometry"/>
                </mxCell>
                <mxCell id="40" style="edgeStyle=orthogonalEdgeStyle;html=1;entryX=0.25;entryY=1;entryDx=0;entryDy=0;" edge="1" parent="1" source="36" target="9">
                    <mxGeometry relative="1" as="geometry"/>
                </mxCell>
                <mxCell id="41" value="скинути поля" style="edgeLabel;html=1;align=center;verticalAlign=middle;resizable=0;points=[];" vertex="1" connectable="0" parent="40">
                    <mxGeometry x="-0.7178" y="2" relative="1" as="geometry">
                        <mxPoint x="1" as="offset"/>
                    </mxGeometry>
                </mxCell>
                <mxCell id="44" style="edgeStyle=orthogonalEdgeStyle;html=1;entryX=0.5;entryY=0;entryDx=0;entryDy=0;exitX=1;exitY=0.5;exitDx=0;exitDy=0;" edge="1" parent="1" source="36" target="37">
                    <mxGeometry relative="1" as="geometry"/>
                </mxCell>
                <mxCell id="36" value="Вид діятьності == 'студент'" style="rhombus;whiteSpace=wrap;html=1;fillColor=default;" vertex="1" parent="1">
                    <mxGeometry x="520" y="1170" width="190" height="100" as="geometry"/>
                </mxCell>
                <mxCell id="42" style="edgeStyle=orthogonalEdgeStyle;html=1;entryX=0.25;entryY=1;entryDx=0;entryDy=0;" edge="1" parent="1" source="37" target="10">
                    <mxGeometry relative="1" as="geometry">
                        <Array as="points">
                            <mxPoint x="440" y="1380"/>
                        </Array>
                    </mxGeometry>
                </mxCell>
                <mxCell id="43" value="скинути поля" style="edgeLabel;html=1;align=center;verticalAlign=middle;resizable=0;points=[];" vertex="1" connectable="0" parent="42">
                    <mxGeometry x="-0.7555" y="-5" relative="1" as="geometry">
                        <mxPoint x="1" as="offset"/>
                    </mxGeometry>
                </mxCell>
                <mxCell id="37" value="Вид діятьності == 'працівник'" style="rhombus;whiteSpace=wrap;html=1;fillColor=default;" vertex="1" parent="1">
                    <mxGeometry x="520" y="1330" width="190" height="100" as="geometry"/>
                </mxCell>
                <mxCell id="46" style="edgeStyle=orthogonalEdgeStyle;html=1;exitX=0.5;exitY=1;exitDx=0;exitDy=0;entryX=0.5;entryY=0;entryDx=0;entryDy=0;" edge="1" parent="1" source="45" target="36">
                    <mxGeometry relative="1" as="geometry"/>
                </mxCell>
                <mxCell id="49" style="edgeStyle=orthogonalEdgeStyle;html=1;entryX=0.5;entryY=1;entryDx=0;entryDy=0;" edge="1" parent="1" source="45" target="18">
                    <mxGeometry relative="1" as="geometry">
                        <Array as="points">
                            <mxPoint x="770" y="1120"/>
                            <mxPoint x="770" y="600"/>
                            <mxPoint x="215" y="600"/>
                        </Array>
                    </mxGeometry>
                </mxCell>
                <mxCell id="45" value="отримати вид діяльності" style="rounded=1;whiteSpace=wrap;html=1;fillColor=default;" vertex="1" parent="1">
                    <mxGeometry x="555" y="1090" width="120" height="60" as="geometry"/>
                </mxCell>
                <mxCell id="tBQRs8W2EuuHutQp6MJ4-49" value="two-way data binding" style="text;html=1;strokeColor=none;fillColor=none;align=center;verticalAlign=middle;whiteSpace=wrap;rounded=0;dashed=1;dashPattern=8 8;labelBackgroundColor=#FFFFFF;fontSize=40;" vertex="1" parent="1">
                    <mxGeometry x="80" y="1520" width="410" height="30" as="geometry"/>
                </mxCell>
            </root>
        </mxGraphModel>
    </diagram>
    <diagram id="1tCtQsb9uXylPs6sqE3l" name="Page-2">
        <mxGraphModel dx="1307" dy="2425" grid="1" gridSize="10" guides="1" tooltips="1" connect="1" arrows="1" fold="1" page="1" pageScale="1" pageWidth="827" pageHeight="1169" math="0" shadow="0">
            <root>
                <mxCell id="0"/>
                <mxCell id="1" parent="0"/>
                <mxCell id="sy0OTTzcolKOJtbCW33b-4" style="edgeStyle=orthogonalEdgeStyle;html=1;entryX=0;entryY=0.5;entryDx=0;entryDy=0;" edge="1" parent="1" source="aDxi522cY5ExFNxT3S_m-1" target="sy0OTTzcolKOJtbCW33b-1">
                    <mxGeometry relative="1" as="geometry">
                        <Array as="points">
                            <mxPoint x="350" y="140"/>
                            <mxPoint x="350" y="520"/>
                            <mxPoint x="760" y="520"/>
                            <mxPoint x="760" y="685"/>
                        </Array>
                    </mxGeometry>
                </mxCell>
                <mxCell id="aDxi522cY5ExFNxT3S_m-1" value="Ім'я" style="rounded=0;whiteSpace=wrap;html=1;" vertex="1" parent="1">
                    <mxGeometry x="120" y="120" width="110" height="40" as="geometry"/>
                </mxCell>
                <mxCell id="sy0OTTzcolKOJtbCW33b-5" style="edgeStyle=orthogonalEdgeStyle;html=1;entryX=0;entryY=0.5;entryDx=0;entryDy=0;" edge="1" parent="1" source="aDxi522cY5ExFNxT3S_m-2" target="sy0OTTzcolKOJtbCW33b-1">
                    <mxGeometry relative="1" as="geometry">
                        <Array as="points">
                            <mxPoint x="350" y="220"/>
                            <mxPoint x="350" y="520"/>
                            <mxPoint x="760" y="520"/>
                            <mxPoint x="760" y="685"/>
                        </Array>
                    </mxGeometry>
                </mxCell>
                <mxCell id="aDxi522cY5ExFNxT3S_m-2" value="Прізвище" style="rounded=0;whiteSpace=wrap;html=1;" vertex="1" parent="1">
                    <mxGeometry x="120" y="200" width="110" height="40" as="geometry"/>
                </mxCell>
                <mxCell id="sy0OTTzcolKOJtbCW33b-6" style="edgeStyle=orthogonalEdgeStyle;html=1;entryX=0;entryY=0.5;entryDx=0;entryDy=0;" edge="1" parent="1" source="aDxi522cY5ExFNxT3S_m-3" target="sy0OTTzcolKOJtbCW33b-1">
                    <mxGeometry relative="1" as="geometry">
                        <mxPoint x="850" y="680" as="targetPoint"/>
                        <Array as="points">
                            <mxPoint x="350" y="300"/>
                            <mxPoint x="350" y="520"/>
                            <mxPoint x="760" y="520"/>
                            <mxPoint x="760" y="685"/>
                        </Array>
                    </mxGeometry>
                </mxCell>
                <mxCell id="aDxi522cY5ExFNxT3S_m-3" value="Email" style="rounded=0;whiteSpace=wrap;html=1;" vertex="1" parent="1">
                    <mxGeometry x="120" y="280" width="110" height="40" as="geometry"/>
                </mxCell>
                <mxCell id="sy0OTTzcolKOJtbCW33b-7" style="edgeStyle=orthogonalEdgeStyle;html=1;" edge="1" parent="1" source="aDxi522cY5ExFNxT3S_m-4">
                    <mxGeometry relative="1" as="geometry">
                        <mxPoint x="870" y="690" as="targetPoint"/>
                        <Array as="points">
                            <mxPoint x="350" y="380"/>
                            <mxPoint x="350" y="520"/>
                            <mxPoint x="760" y="520"/>
                            <mxPoint x="760" y="690"/>
                        </Array>
                    </mxGeometry>
                </mxCell>
                <mxCell id="aDxi522cY5ExFNxT3S_m-4" value="Пароль" style="rounded=0;whiteSpace=wrap;html=1;" vertex="1" parent="1">
                    <mxGeometry x="120" y="360" width="110" height="40" as="geometry"/>
                </mxCell>
                <mxCell id="sy0OTTzcolKOJtbCW33b-8" style="edgeStyle=orthogonalEdgeStyle;html=1;entryX=0;entryY=0.5;entryDx=0;entryDy=0;" edge="1" parent="1" source="aDxi522cY5ExFNxT3S_m-5" target="sy0OTTzcolKOJtbCW33b-1">
                    <mxGeometry relative="1" as="geometry">
                        <Array as="points">
                            <mxPoint x="360" y="460"/>
                            <mxPoint x="360" y="520"/>
                            <mxPoint x="760" y="520"/>
                            <mxPoint x="760" y="685"/>
                        </Array>
                    </mxGeometry>
                </mxCell>
                <mxCell id="sy0OTTzcolKOJtbCW33b-10" value="Змінити об'єкт стану форми" style="edgeLabel;html=1;align=center;verticalAlign=middle;resizable=0;points=[];" vertex="1" connectable="0" parent="sy0OTTzcolKOJtbCW33b-8">
                    <mxGeometry x="-0.1016" y="4" relative="1" as="geometry">
                        <mxPoint x="-1" as="offset"/>
                    </mxGeometry>
                </mxCell>
                <mxCell id="aDxi522cY5ExFNxT3S_m-5" value="Вік" style="rounded=0;whiteSpace=wrap;html=1;" vertex="1" parent="1">
                    <mxGeometry x="120" y="440" width="110" height="40" as="geometry"/>
                </mxCell>
                <mxCell id="sy0OTTzcolKOJtbCW33b-9" style="edgeStyle=orthogonalEdgeStyle;html=1;entryX=0;entryY=0.5;entryDx=0;entryDy=0;" edge="1" parent="1" source="aDxi522cY5ExFNxT3S_m-6" target="sy0OTTzcolKOJtbCW33b-1">
                    <mxGeometry relative="1" as="geometry">
                        <Array as="points">
                            <mxPoint x="760" y="530"/>
                            <mxPoint x="760" y="685"/>
                        </Array>
                    </mxGeometry>
                </mxCell>
                <mxCell id="aDxi522cY5ExFNxT3S_m-6" value="Вид діятьності" style="rounded=0;whiteSpace=wrap;html=1;fillColor=default;" vertex="1" parent="1">
                    <mxGeometry x="120" y="510" width="110" height="40" as="geometry"/>
                </mxCell>
                <mxCell id="CbIOS1Zo207wHMRivF46-1" value="" style="rounded=0;whiteSpace=wrap;html=1;fillColor=none;" vertex="1" parent="1">
                    <mxGeometry x="60" y="585" width="280" height="280" as="geometry"/>
                </mxCell>
                <mxCell id="CbIOS1Zo207wHMRivF46-2" value="" style="rounded=0;whiteSpace=wrap;html=1;fillColor=none;" vertex="1" parent="1">
                    <mxGeometry x="370" y="585" width="280" height="280" as="geometry"/>
                </mxCell>
                <mxCell id="CbIOS1Zo207wHMRivF46-3" value="Заклад освіти" style="rounded=0;whiteSpace=wrap;html=1;fillColor=default;" vertex="1" parent="1">
                    <mxGeometry x="80" y="610" width="120" height="45" as="geometry"/>
                </mxCell>
                <mxCell id="CbIOS1Zo207wHMRivF46-4" value="Група" style="rounded=0;whiteSpace=wrap;html=1;fillColor=default;" vertex="1" parent="1">
                    <mxGeometry x="80" y="685" width="120" height="45" as="geometry"/>
                </mxCell>
                <mxCell id="CbIOS1Zo207wHMRivF46-5" value="Курс" style="rounded=0;whiteSpace=wrap;html=1;fillColor=default;" vertex="1" parent="1">
                    <mxGeometry x="80" y="765" width="120" height="45" as="geometry"/>
                </mxCell>
                <mxCell id="CbIOS1Zo207wHMRivF46-6" value="Орг." style="rounded=0;whiteSpace=wrap;html=1;fillColor=default;" vertex="1" parent="1">
                    <mxGeometry x="400" y="610" width="120" height="45" as="geometry"/>
                </mxCell>
                <mxCell id="CbIOS1Zo207wHMRivF46-7" value="Посада" style="rounded=0;whiteSpace=wrap;html=1;fillColor=default;" vertex="1" parent="1">
                    <mxGeometry x="400" y="685" width="120" height="45" as="geometry"/>
                </mxCell>
                <mxCell id="sy0OTTzcolKOJtbCW33b-12" style="edgeStyle=orthogonalEdgeStyle;html=1;entryX=1.007;entryY=0.373;entryDx=0;entryDy=0;entryPerimeter=0;" edge="1" parent="1" source="CbIOS1Zo207wHMRivF46-8" target="sy0OTTzcolKOJtbCW33b-11">
                    <mxGeometry relative="1" as="geometry"/>
                </mxCell>
                <mxCell id="sy0OTTzcolKOJtbCW33b-13" value="Оновлення відображення" style="edgeLabel;html=1;align=center;verticalAlign=middle;resizable=0;points=[];" vertex="1" connectable="0" parent="sy0OTTzcolKOJtbCW33b-12">
                    <mxGeometry x="0.5906" y="-5" relative="1" as="geometry">
                        <mxPoint x="11" y="-68" as="offset"/>
                    </mxGeometry>
                </mxCell>
                <mxCell id="CbIOS1Zo207wHMRivF46-8" value="&lt;div style=&quot;text-align: left;&quot;&gt;&lt;span style=&quot;background-color: initial;&quot;&gt;{&lt;/span&gt;&lt;/div&gt;&lt;blockquote style=&quot;margin: 0 0 0 40px; border: none; padding: 0px;&quot;&gt;&lt;div style=&quot;text-align: left;&quot;&gt;&lt;span style=&quot;background-color: rgb(255, 255, 255);&quot;&gt;firstName: &quot;&quot;,&lt;/span&gt;&lt;/div&gt;&lt;div style=&quot;text-align: left;&quot;&gt;&lt;span style=&quot;background-color: rgb(255, 255, 255);&quot;&gt;lastName: &quot;&quot;,&lt;/span&gt;&lt;/div&gt;&lt;div style=&quot;text-align: left;&quot;&gt;&lt;span style=&quot;background-color: rgb(255, 255, 255);&quot;&gt;email: &quot;&quot;,&lt;/span&gt;&lt;/div&gt;&lt;div style=&quot;text-align: left;&quot;&gt;&lt;span style=&quot;background-color: rgb(255, 255, 255);&quot;&gt;password: &quot;&quot;.&lt;/span&gt;&lt;/div&gt;&lt;div style=&quot;text-align: left;&quot;&gt;&lt;span style=&quot;background-color: rgb(255, 255, 255);&quot;&gt;age: 0,&lt;/span&gt;&lt;/div&gt;&lt;div style=&quot;text-align: left;&quot;&gt;&lt;span style=&quot;background-color: rgb(255, 255, 255);&quot;&gt;ocp: &quot;student&quot;.&lt;/span&gt;&lt;/div&gt;&lt;div style=&quot;text-align: left;&quot;&gt;&lt;span style=&quot;background-color: rgb(255, 255, 255);&quot;&gt;studentData: {&lt;/span&gt;&lt;/div&gt;&lt;div style=&quot;text-align: left;&quot;&gt;&lt;span style=&quot;background-color: rgb(255, 255, 255);&quot;&gt;&lt;span style=&quot;white-space: pre;&quot;&gt;&#9;&lt;/span&gt;school: &quot;&quot;&lt;br&gt;&lt;/span&gt;&lt;/div&gt;&lt;div style=&quot;text-align: left;&quot;&gt;&lt;span style=&quot;background-color: rgb(255, 255, 255);&quot;&gt;&lt;span style=&quot;white-space: pre;&quot;&gt;&#9;&lt;/span&gt;schoolYear: 0&lt;/span&gt;&lt;/div&gt;&lt;div style=&quot;text-align: left;&quot;&gt;&lt;span style=&quot;background-color: rgb(255, 255, 255);&quot;&gt;&lt;span style=&quot;white-space: pre;&quot;&gt;&#9;&lt;/span&gt;schoolGroup: &quot;&quot;&lt;/span&gt;&lt;/div&gt;&lt;div style=&quot;text-align: left;&quot;&gt;&lt;span style=&quot;background-color: rgb(255, 255, 255);&quot;&gt;}&lt;/span&gt;&lt;/div&gt;&lt;div style=&quot;text-align: left;&quot;&gt;&lt;br&gt;&lt;/div&gt;&lt;/blockquote&gt;&lt;div style=&quot;text-align: left;&quot;&gt;}&lt;/div&gt;" style="rounded=0;whiteSpace=wrap;html=1;fillColor=none;dashed=1;dashPattern=8 8;" vertex="1" parent="1">
                    <mxGeometry x="910" y="130" width="260" height="270" as="geometry"/>
                </mxCell>
                <mxCell id="sy0OTTzcolKOJtbCW33b-3" style="edgeStyle=orthogonalEdgeStyle;html=1;entryX=0.5;entryY=0;entryDx=0;entryDy=0;" edge="1" parent="1" source="sy0OTTzcolKOJtbCW33b-1" target="CbIOS1Zo207wHMRivF46-8">
                    <mxGeometry relative="1" as="geometry">
                        <mxPoint x="1240" y="230" as="targetPoint"/>
                        <Array as="points">
                            <mxPoint x="955" y="528"/>
                            <mxPoint x="1340" y="528"/>
                            <mxPoint x="1340" y="80"/>
                            <mxPoint x="1040" y="80"/>
                        </Array>
                    </mxGeometry>
                </mxCell>
                <mxCell id="sy0OTTzcolKOJtbCW33b-1" value="Змінити об'єкт стану форми" style="rounded=0;whiteSpace=wrap;html=1;labelBackgroundColor=#FFFFFF;fillColor=none;" vertex="1" parent="1">
                    <mxGeometry x="870" y="655" width="170" height="60" as="geometry"/>
                </mxCell>
                <mxCell id="sy0OTTzcolKOJtbCW33b-2" value="Стан форми" style="text;html=1;strokeColor=none;fillColor=none;align=center;verticalAlign=middle;whiteSpace=wrap;rounded=0;dashed=1;dashPattern=8 8;" vertex="1" parent="1">
                    <mxGeometry x="910" y="100" width="90" height="30" as="geometry"/>
                </mxCell>
                <mxCell id="sy0OTTzcolKOJtbCW33b-11" value="" style="rounded=0;whiteSpace=wrap;html=1;labelBackgroundColor=#FFFFFF;fillColor=none;dashed=1;dashPattern=8 8;" vertex="1" parent="1">
                    <mxGeometry x="40" y="100" width="650" height="950" as="geometry"/>
                </mxCell>
                <mxCell id="sy0OTTzcolKOJtbCW33b-14" value="&lt;font style=&quot;font-size: 24px;&quot;&gt;Реактивний підхід&lt;/font&gt;" style="text;html=1;strokeColor=none;fillColor=none;align=center;verticalAlign=middle;whiteSpace=wrap;rounded=0;dashed=1;dashPattern=8 8;labelBackgroundColor=#FFFFFF;" vertex="1" parent="1">
                    <mxGeometry x="650" y="-170" width="200" height="40" as="geometry"/>
                </mxCell>
                <mxCell id="aQojbQT-rDpttcXcUciu-2" style="edgeStyle=orthogonalEdgeStyle;html=1;entryX=0.5;entryY=1;entryDx=0;entryDy=0;fontSize=24;" edge="1" parent="1" source="aQojbQT-rDpttcXcUciu-1" target="sy0OTTzcolKOJtbCW33b-1">
                    <mxGeometry relative="1" as="geometry"/>
                </mxCell>
                <mxCell id="aQojbQT-rDpttcXcUciu-3" value="&lt;font style=&quot;font-size: 20px;&quot;&gt;Задавати новий &quot;пустий&quot; об'єкт стану&lt;/font&gt;" style="edgeLabel;html=1;align=center;verticalAlign=middle;resizable=0;points=[];fontSize=24;" vertex="1" connectable="0" parent="aQojbQT-rDpttcXcUciu-2">
                    <mxGeometry x="-0.1443" y="3" relative="1" as="geometry">
                        <mxPoint as="offset"/>
                    </mxGeometry>
                </mxCell>
                <mxCell id="aQojbQT-rDpttcXcUciu-1" value="Reset" style="rounded=1;whiteSpace=wrap;html=1;fillColor=#f5f5f5;fontColor=#333333;strokeColor=#666666;" vertex="1" parent="1">
                    <mxGeometry x="294" y="930" width="120" height="60" as="geometry"/>
                </mxCell>
                <mxCell id="TLRtOxkwozI_8LMSY3pR-1" value="" style="endArrow=classic;html=1;fontSize=20;" edge="1" parent="1">
                    <mxGeometry width="50" height="50" relative="1" as="geometry">
                        <mxPoint x="310" y="1120" as="sourcePoint"/>
                        <mxPoint x="1100" y="1120" as="targetPoint"/>
                    </mxGeometry>
                </mxCell>
                <mxCell id="TLRtOxkwozI_8LMSY3pR-2" value="Обробники подій форми, що змінюють об'єкт стану форми" style="edgeLabel;html=1;align=center;verticalAlign=middle;resizable=0;points=[];fontSize=20;" vertex="1" connectable="0" parent="TLRtOxkwozI_8LMSY3pR-1">
                    <mxGeometry x="-0.3567" y="1" relative="1" as="geometry">
                        <mxPoint x="136" as="offset"/>
                    </mxGeometry>
                </mxCell>
                <mxCell id="TLRtOxkwozI_8LMSY3pR-3" value="" style="endArrow=classic;html=1;fontSize=20;" edge="1" parent="1">
                    <mxGeometry width="50" height="50" relative="1" as="geometry">
                        <mxPoint x="1160" y="-40" as="sourcePoint"/>
                        <mxPoint x="320" y="-40" as="targetPoint"/>
                    </mxGeometry>
                </mxCell>
                <mxCell id="TLRtOxkwozI_8LMSY3pR-4" value="Елементи форми оновлюються кільки при зміні об'єкту стану форми" style="edgeLabel;html=1;align=center;verticalAlign=middle;resizable=0;points=[];fontSize=20;" vertex="1" connectable="0" parent="TLRtOxkwozI_8LMSY3pR-3">
                    <mxGeometry x="0.1915" y="-2" relative="1" as="geometry">
                        <mxPoint x="80" as="offset"/>
                    </mxGeometry>
                </mxCell>
                <mxCell id="TLRtOxkwozI_8LMSY3pR-5" value="&lt;font style=&quot;font-size: 40px;&quot;&gt;one-way data flow&lt;/font&gt;" style="text;html=1;strokeColor=none;fillColor=none;align=center;verticalAlign=middle;whiteSpace=wrap;rounded=0;dashed=1;dashPattern=8 8;labelBackgroundColor=#FFFFFF;fontSize=20;" vertex="1" parent="1">
                    <mxGeometry x="1090" y="685" width="340" height="30" as="geometry"/>
                </mxCell>
            </root>
        </mxGraphModel>
    </diagram>
    <diagram id="4FTGL2DtCqgc5VZMvwOO" name="Page-3">
        <mxGraphModel dx="719" dy="691" grid="1" gridSize="10" guides="1" tooltips="1" connect="1" arrows="1" fold="1" page="1" pageScale="1" pageWidth="827" pageHeight="1169" math="0" shadow="0">
            <root>
                <mxCell id="0"/>
                <mxCell id="1" parent="0"/>
                <mxCell id="6uiiAx48EDjYgDQIkzvD-1" value="&lt;div style=&quot;text-align: left;&quot;&gt;&lt;span style=&quot;font-size: 30px;&quot;&gt;Побудова користувацькиї інтерфейсів&lt;/span&gt;&lt;/div&gt;&lt;div style=&quot;text-align: left;&quot;&gt;&lt;span style=&quot;font-size: 30px;&quot;&gt;&lt;br&gt;&lt;/span&gt;&lt;/div&gt;&lt;font style=&quot;font-size: 20px;&quot;&gt;&lt;div style=&quot;text-align: left;&quot;&gt;1. Компонентний&lt;/div&gt;&lt;div style=&quot;text-align: left;&quot;&gt;2. Реактивний&lt;/div&gt;&lt;/font&gt;" style="text;html=1;strokeColor=none;fillColor=none;align=center;verticalAlign=middle;whiteSpace=wrap;rounded=0;dashed=1;dashPattern=8 8;labelBackgroundColor=#FFFFFF;fontSize=40;" vertex="1" parent="1">
                    <mxGeometry x="40" y="80" width="530" height="190" as="geometry"/>
                </mxCell>
            </root>
        </mxGraphModel>
    </diagram>
</mxfile>